name rise49.25peak52.1432fall72.8391.mot
datacolumns 19
datarows 17
range 14.98660800000000 15.01327200000000
endheader
time	ground_force1_vx	ground_force1_vy	ground_force1_vz	ground_force1_px	ground_force1_py	ground_force1_pz	ground_force2_vx	ground_force2_vy	ground_force2_vz	ground_force2_px	ground_force2_py	ground_force2_pz	ground_torque1_x	ground_torque1_y	ground_torque1_z	ground_torque2_x	ground_torque2_y	ground_torque2_z	
14.98660800000000	-35.98841800000000	799.72818500000005	46.49085600000000	0.12000200000000	0.00000000000000	0.09223300000000	-2.03860900000000	7.29145700000000	1.01323600000000	0.00000000000000	0.00000000000000	0.00000000000000	0.00000000000000	18.16883500000000	0.00000000000000	0.00000000000000	0.19011800000000	0.00000000000000	
14.98827600000000	-36.72729800000000	799.39967400000000	46.53948100000000	0.11907400000000	0.00000000000000	0.09216600000000	-2.94483600000000	11.34321100000000	1.50439700000000	0.00000000000000	0.00000000000000	0.00000000000000	0.00000000000000	18.16055400000000	0.00000000000000	0.00000000000000	0.29350100000000	0.00000000000000	
14.98993800000000	-37.48634000000000	798.98863200000005	46.57918500000000	0.11814500000000	0.00000000000000	0.09209900000000	-3.93963700000000	16.01220000000000	2.05418300000000	0.00000000000000	0.00000000000000	0.00000000000000	0.00000000000000	18.15343600000000	0.00000000000000	0.00000000000000	0.41184000000000	0.00000000000000	
14.99161300000000	-38.26574900000000	798.49187900000004	46.60937500000000	0.11721500000000	0.00000000000000	0.09202900000000	-4.99131700000000	21.21483500000000	2.64804900000000	0.00000000000000	0.00000000000000	0.00000000000000	0.00000000000000	18.14752200000000	0.00000000000000	0.00000000000000	0.54270700000000	0.00000000000000	
14.99327700000000	-39.06566300000000	797.90618800000004	46.62946200000000	0.11628400000000	0.00000000000000	0.09195800000000	-6.06330100000000	26.84288600000000	3.26859300000000	0.33478800000000	0.00000000000000	-0.07946900000000	0.00000000000000	18.14284300000000	0.00000000000000	0.00000000000000	1.29545300000000	0.00000000000000	
14.99493700000000	-39.88615200000000	797.22828800000002	46.63885500000000	0.11535100000000	0.00000000000000	0.09188500000000	-7.11680300000000	32.77232400000000	3.89685500000000	0.33931800000000	0.00000000000000	-0.07983100000000	0.00000000000000	18.13942300000000	0.00000000000000	0.00000000000000	1.58337400000000	0.00000000000000	
14.99660400000000	-40.72721000000000	796.45486400000004	46.63696800000000	0.11441700000000	0.00000000000000	0.09181000000000	-8.11374800000000	38.87374400000000	4.51375500000000	0.34334200000000	0.00000000000000	-0.08018100000000	0.00000000000000	18.13727700000000	0.00000000000000	0.00000000000000	1.87693200000000	0.00000000000000	
14.99827900000000	-41.58875500000000	795.58256300000005	46.62322100000000	0.11348200000000	0.00000000000000	0.09173400000000	-9.01954300000000	45.02286000000000	5.10151700000000	0.34692800000000	0.00000000000000	-0.08052000000000	0.00000000000000	18.13641000000000	0.00000000000000	0.00000000000000	2.16855300000000	0.00000000000000	
14.99994500000000	-42.47062600000000	794.60799099999997	46.59704200000000	0.11254400000000	0.00000000000000	0.09165600000000	-9.80535700000000	51.10972100000000	5.64485000000000	0.35013200000000	0.00000000000000	-0.08085000000000	0.00000000000000	18.13682100000000	0.00000000000000	0.00000000000000	2.45138100000000	0.00000000000000	
15.00160500000000	-43.37257800000000	793.52771800000005	46.55786900000000	0.11160400000000	0.00000000000000	0.09157600000000	-10.44966600000000	57.04565800000000	6.13180700000000	0.35300100000000	0.00000000000000	-0.08117100000000	0.00000000000000	18.13849500000000	0.00000000000000	0.00000000000000	2.71969000000000	0.00000000000000	
15.00327000000000	-44.29428100000000	792.33828000000005	46.50515100000000	0.11066300000000	0.00000000000000	0.09149400000000	-10.93899900000000	62.76750800000000	6.55423500000000	0.35557600000000	0.00000000000000	-0.08148600000000	0.00000000000000	18.14141100000000	0.00000000000000	0.00000000000000	2.96915200000000	0.00000000000000	
15.00494400000000	-45.23531700000000	791.03618400000005	46.43835100000000	0.10971900000000	0.00000000000000	0.09141100000000	-11.26790800000000	68.23909399999999	6.90785600000000	0.35789200000000	0.00000000000000	-0.08179400000000	0.00000000000000	18.14553500000000	0.00000000000000	0.00000000000000	3.19694500000000	0.00000000000000	
15.00660700000000	-46.19517600000000	789.61791400000004	46.35695000000000	0.10877300000000	0.00000000000000	0.09132600000000	-11.43829300000000	73.45023700000000	7.19201400000000	0.35997800000000	0.00000000000000	-0.08209600000000	0.00000000000000	18.15082400000000	0.00000000000000	0.00000000000000	3.40171500000000	0.00000000000000	
15.00827600000000	-47.17325900000000	788.07992800000000	46.26044400000000	0.10782500000000	0.00000000000000	0.09123900000000	-11.45823400000000	78.41380599999999	7.40916300000000	0.36186000000000	0.00000000000000	-0.08239300000000	0.00000000000000	18.15722400000000	0.00000000000000	0.00000000000000	3.58342300000000	0.00000000000000	
15.00994200000000	-48.16887100000000	786.41867100000002	46.14835200000000	0.10687500000000	0.00000000000000	0.09115100000000	-11.34051600000000	83.16137100000000	7.56419100000000	0.36356100000000	0.00000000000000	-0.08268500000000	0.00000000000000	18.16466800000000	0.00000000000000	0.00000000000000	3.74311600000000	0.00000000000000	
15.01160700000000	-49.18122300000000	784.63057600000002	46.02021500000000	0.10592200000000	0.00000000000000	0.09106100000000	-11.10101900000000	87.73807600000001	7.66366000000000	0.36510000000000	0.00000000000000	-0.08297300000000	0.00000000000000	18.17308100000000	0.00000000000000	0.00000000000000	3.88263800000000	0.00000000000000	
15.01327200000000	-50.20942800000000	782.71207200000003	45.87559500000000	0.10496800000000	0.00000000000000	0.09096900000000	-10.75713900000000	92.19728499999999	7.71503700000000	0.36649400000000	0.00000000000000	-0.08325600000000	0.00000000000000	18.18237400000000	0.00000000000000	0.00000000000000	4.00433700000000	0.00000000000000	
